# xmcd CD database file
#
# Track frame offsets:
#	182
#	17487
#	36850
#	48475
#	60737
#	74895
#	86835
#	100865
#	115437
#	128937
#	141227
#	154985
#	166607
#	182860
#	195637
#	206227
#	220120
#	232432
#
# Disc length: 3279 seconds
#
# Revision: 2
# Processed by: cddbd v1.5.2PL0 Copyright (c) Steve Scherf et al.
# Submitted via: CDex 1.70beta2
#
DISCID=190ccd12
DTITLE=Various Artist - Selection of BOOGIE WOOGIE
DYEAR=1995
DGENRE=Blues
TTITLE0=Big Joe Turner - Roll'em Pete
TTITLE1=Woody Herrman - Pinetop's Blues
TTITLE2=Count Basie - Hob Nail Boogie
TTITLE3=Big Joe Tuner - Boogie Woogie Country Girl
TTITLE4=Pete Johnson's Orchestra - Half Tigh Boogie
TTITLE5=Big Joe Turner with Pete Johnson - Wine-O-Baby Boogie
TTITLE6=Lionel Hampton - Beulah's Sister's Boogie
TTITLE7=Anita O' Day with Gene Krupa and his Orchestra - Boogie Blues
TTITLE8=Count Basie - The Mad Boogie
TTITLE9=Joe Turner with Pete Johnson - Baby, Won't You Marry Me
TTITLE10=Lionel Hampton - Hamp's Walking Boogie
TTITLE11=Count Basie - Wild Bill's Boogie
TTITLE12=Glenn Miller - In The Mood
TTITLE13=Earl Hines - Boogie Woogie on St. Louis Blues
TTITLE14=Count Basie - Red Bank Bogie (G. I. Stomp)
TTITLE15=Count Basie Quartet - Boogie Woogie
TTITLE16=Helen Humes with Buck Clayton and his All Stars - Be Ba Ba Le Ba Boogie
TTITLE17=Gene Krupa - Gene's Boogie
EXTD=YEAR: 1995
EXTT0=
EXTT1=
EXTT2=
EXTT3=
EXTT4=
EXTT5=
EXTT6=
EXTT7=
EXTT8=
EXTT9=
EXTT10=
EXTT11=
EXTT12=
EXTT13=
EXTT14=
EXTT15=
EXTT16=
EXTT17=
PLAYORDER=
